#!OML:ASF F:\VICON\USERDATA\INSTALL\rory3\rory3.ASF
:FULLY-SPECIFIED
:DEGREES
343
root -0.28797 25.393 3.69204 -169.764 -4.82622 178.127
lowerback 8.48042 0.0602836 -2.331
upperback 0.95132 -0.150901 1.8059
thorax -3.76016 -0.0648876 3.20852
lowerneck -15.0247 2.44215 -9.59272
upperneck 39.0943 1.25844 3.05183
head 16.4418 -1.86673 2.87834
rclavicle 1.13307e-014 4.77083e-015
rhumerus -30.6577 -2.42839 -79.2525
rradius 40.9276
rwrist 15.7337
rhand -19.5117 2.0647
rfingers 7.12502
rthumb 6.81124 -27.8057
lclavicle 1.13307e-014 4.77083e-015
lhumerus -29.6205 5.68837 81.374
lradius 36.5666
lwrist -1.07602
lhand -18.6051 21.2472
lfingers 7.12502
lthumb 7.68631 51.0875
rfemur -13.2419 1.56179 25.6295
rtibia 13.9264
rfoot -9.52291 -3.68747
rtoes 17.7189
lfemur -60.6549 3.38045 -22.3021
ltibia 102.822
lfoot -8.25378 -7.52893
ltoes -19.2357
344
root -0.293461 25.4106 3.65641 -169.88 -4.65123 178.166
lowerback 8.50769 0.155293 -2.29514
upperback 0.9634 -0.0226644 1.8052
thorax -3.77218 -0.00223687 3.17282
lowerneck -15.0677 2.42495 -9.68687
upperneck 39.109 1.2332 3.1625
head 16.4593 -1.87474 2.94142
rclavicle -1.19271e-014 9.54166e-015
rhumerus -30.4978 -2.28851 -79.2246
rradius 40.8644
rwrist 15.8255
rhand -20.3561 2.94923
rfingers 7.12502
rthumb 5.99606 -26.9459
lclavicle -1.19271e-014 9.54166e-015
lhumerus -29.6145 5.74404 81.3002
lradius 36.5752
lwrist -1.17324
lhand -18.3038 21.6806
lfingers 7.12502
lthumb 7.97715 51.5101
rfemur -12.2252 1.62686 25.6613
rtibia 12.3878
rfoot -8.9022 -3.88819
rtoes 17.7548
lfemur -62.0683 3.43204 -22.4058
ltibia 103.733
lfoot -9.45837 -8.12964
ltoes -19.2801
345
root -0.300053 25.4245 3.61976 -170.004 -4.51161 178.333
lowerback 8.50197 0.236147 -2.10594
upperback 1.0267 0.0987809 1.83944
thorax -3.71163 0.0515441 3.08705
lowerneck -15.1537 2.41156 -9.72228
upperneck 39.0437 1.28073 3.15477
head 16.4425 -1.84735 2.95514
rclavicle -1.07344e-014 -3.97569e-015
rhumerus -30.2294 -2.18811 -79.1936
rradius 40.8573
rwrist 15.6358
rhand -20.3015 2.59524
rfingers 7.12502
rthumb 6.04871 -27.2984
lclavicle -1.07344e-014 -3.97569e-015
lhumerus -29.6005 5.80678 81.2655
lradius 36.6827
lwrist -1.16089
lhand -18.3155 21.9146
lfingers 7.12502
lthumb 7.96587 51.7445
rfemur -11.203 1.72903 25.8268
rtibia 10.8673
rfoot -8.3364 -4.08923
rtoes 17.7737
lfemur -63.4767 3.4956 -22.39
ltibia 104.502
lfoot -10.5288 -8.90464
ltoes -18.9396
346
root -0.309761 25.4388 3.58621 -170.082 -4.38764 178.328
lowerback 8.53161 0.307107 -2.01157
upperback 1.06246 0.198063 1.79389
thorax -3.69734 0.0978213 2.97462
lowerneck -15.1828 2.41321 -9.56952
upperneck 38.9947 1.35152 2.92803
head 16.4252 -1.81817 2.84037
rclavicle -9.14409e-015 2.3059e-014
rhumerus -29.9887 -2.25694 -79.1482
rradius 41.1018
rwrist 15.9039
rhand -19.5747 1.54978
rfingers 7.12502
rthumb 6.75034 -28.3226
lclavicle -9.14409e-015 2.3059e-014
lhumerus -29.6762 5.81837 81.219
lradius 36.9146
lwrist -1.15481
lhand -18.3015 22.1213
lfingers 7.12502
lthumb 7.97937 51.9507
rfemur -10.2012 1.80838 25.7913
rtibia 9.28874
rfoot -7.73994 -4.31506
rtoes 17.7819
lfemur -64.8504 3.42181 -22.5989
ltibia 105.049
lfoot -11.482 -9.70542
ltoes -18.5735
347
root -0.317387 25.4525 3.55406 -170.173 -4.2887 178.281
lowerback 8.64158 0.347971 -1.98786
upperback 1.04261 0.252089 1.73915
thorax -3.78257 0.125764 2.89829
lowerneck -15.0966 2.46807 -9.34974
upperneck 38.9253 1.46708 2.6706
head 16.3654 -1.76811 2.70515
rclavicle -9.54166e-015 -2.14687e-014
rhumerus -29.8688 -2.1928 -79.164
rradius 41.3602
rwrist 16.1969
rhand -19.8494 1.64493
rfingers 7.12502
rthumb 6.48518 -28.2358
lclavicle -9.54166e-015 -2.14687e-014
lhumerus -29.823 5.95162 81.0891
lradius 37.0457
lwrist -1.22863
lhand -18.4142 22.3212
lfingers 7.12502
lthumb 7.87054 52.1547
rfemur -9.18548 1.85641 25.7262
rtibia 7.67222
rfoot -7.13117 -4.50948
rtoes 18.1354
lfemur -66.146 3.32289 -22.85
ltibia 105.386
lfoot -12.1644 -10.6069
ltoes -18.4775
348
root -0.323829 25.4605 3.51949 -170.273 -4.15695 178.322
lowerback 8.65317 0.402254 -1.92266
upperback 1.04583 0.329352 1.72019
thorax -3.7902 0.162958 2.83253
lowerneck -14.9286 2.52205 -9.32613
upperneck 38.8122 1.54338 2.6552
head 16.2578 -1.72618 2.70408
rclavicle 7.95139e-015 1.19271e-014
rhumerus -29.7323 -2.15179 -79.1858
rradius 41.4746
rwrist 16.19
rhand -20.3813 2.32653
rfingers 7.12502
rthumb 5.97167 -27.5693
lclavicle 7.95139e-015 1.19271e-014
lhumerus -29.8561 6.08424 80.9881
lradius 37.0144
lwrist -1.21293
lhand -18.5324 22.6673
lfingers 7.12502
lthumb 7.75647 52.505
rfemur -8.12613 1.95239 25.7486
rtibia 5.97238
rfoot -6.493 -4.72069
rtoes 18.5877
lfemur -67.3631 3.31505 -23.0404
ltibia 105.586
lfoot -12.7055 -11.6035
ltoes -19.1435
349
root -0.331752 25.4676 3.48204 -170.352 -4.07007 178.299
lowerback 8.62206 0.442352 -1.90454
upperback 1.0691 0.383637 1.71445
thorax -3.75194 0.188438 2.80978
lowerneck -14.9671 2.53243 -9.52766
upperneck 38.8675 1.54268 2.86582
head 16.2883 -1.73157 2.83377
rclavicle 9.74045e-015 1.59028e-015
rhumerus -29.5331 -2.05179 -79.1397
rradius 41.5859
rwrist 16.0098
rhand -20.4665 2.47981
rfingers 7.12502
rthumb 5.8894 -27.4183
lclavicle 9.74045e-015 1.59028e-015
lhumerus -29.8239 6.23722 80.9403
lradius 36.9055
lwrist -1.14905
lhand -18.5765 22.8997
lfingers 7.12502
lthumb 7.71393 52.739
rfemur -6.87265 1.9931 25.6993
rtibia 3.87659
rfoot -5.60103 -5.00292
rtoes 18.7834
lfemur -68.4814 3.19432 -23.3217
ltibia 105.616
lfoot -13.4765 -12.534
ltoes -20.324
350
root -0.339839 25.4768 3.44351 -170.467 -3.98779 178.227
lowerback 8.68243 0.477725 -1.91937
upperback 1.10669 0.425266 1.68897
thorax -3.74913 0.20777 2.78671
lowerneck -15.1166 2.51399 -9.66675
upperneck 38.9892 1.5234 2.97526
head 16.3872 -1.75499 2.90699
rclavicle 5.96354e-016 9.54166e-015
rhumerus -29.3002 -2.11447 -79.0762
rradius 41.6263
rwrist 15.9735
rhand -20.3777 2.23836
rfingers 7.12502
rthumb 5.9752 -27.6574
lclavicle 5.96354e-016 9.54166e-015
lhumerus -29.839 6.43111 80.8791
lradius 36.8652
lwrist -1.22517
lhand -18.6016 22.9229
lfingers 7.12502
lthumb 7.68967 52.7631
rfemur -4.7031 2.01649 25.5902
rtibia 3.97569e-015
rfoot -3.82305 -5.55283
rtoes 18.8848
lfemur -69.4732 3.04478 -23.6919
ltibia 105.475
lfoot -14.3138 -13.3686
ltoes -21.1003
351
root -0.347386 25.4818 3.40365 -170.602 -3.86398 178.279
lowerback 8.70732 0.517994 -1.83535
upperback 1.16608 0.482181 1.69114
thorax -3.7042 0.231807 2.73469
lowerneck -15.1822 2.54327 -9.59383
upperneck 39.1098 1.57391 2.85229
head 16.4669 -1.75459 2.84906
rclavicle 7.7526e-015 6.36111e-015
rhumerus -29.0341 -2.1978 -79.0409
rradius 41.627
rwrist 16.1523
rhand -20.601 2.43486
rfingers 7.12502
rthumb 5.75956 -27.4669
lclavicle 7.7526e-015 6.36111e-015
lhumerus -29.8973 6.68032 80.8211
lradius 36.9122
lwrist -1.24473
lhand -18.5104 23.2577
lfingers 7.12502
lthumb 7.77775 53.0946
rfemur -4.39812 2.10233 25.6188
rtibia -3.97569e-015
rfoot -4.01786 -5.46766
rtoes 18.9296
lfemur -70.3641 3.00373 -23.9514
ltibia 105.217
lfoot -15.0085 -14.2071
ltoes -21.1929
352
root -0.355129 25.4841 3.36218 -170.743 -3.67196 178.397
lowerback 8.70416 0.56824 -1.72345
upperback 1.21181 0.556368 1.70475
thorax -3.65853 0.264558 2.67686
lowerneck -15.0802 2.61562 -9.42514
upperneck 39.1004 1.67281 2.68055
head 16.4334 -1.71607 2.75707
rclavicle 1.33186e-014 -3.18055e-015
rhumerus -28.8798 -2.18152 -79.0636
rradius 41.7704
rwrist 16.1938
rhand -20.8791 2.64935
rfingers 7.12502
rthumb 5.49105 -27.2595
lclavicle 1.33186e-014 -3.18055e-015
lhumerus -30.0194 6.97339 80.7208
lradius 36.9749
lwrist -1.21206
lhand -18.2278 23.6015
lfingers 7.12502
lthumb 8.05044 53.4282
rfemur -4.0832 2.26605 25.7077
rtibia -3.97569e-015
rfoot -4.19606 -5.38961
rtoes 19.2357
lfemur -71.1702 3.04827 -24.1764
ltibia 104.822
lfoot -15.6075 -14.8514
ltoes -21.5393
353
root -0.362588 25.4801 3.32602 -170.808 -3.50159 178.464
lowerback 8.75968 0.6343 -1.64338
upperback 1.19307 0.651426 1.71206
thorax -3.71379 0.311376 2.62785
lowerneck -14.8809 2.61614 -9.5012
upperneck 38.949 1.68758 2.68639
head 16.3019 -1.70872 2.77122
rclavicle 5.36719e-015 -1.59028e-015
rhumerus -28.8541 -2.11554 -79.0466
rradius 41.9865
rwrist 16.058
rhand -20.8637 2.23664
rfingers 7.12502
rthumb 5.50592 -27.6718
lclavicle 5.36719e-015 -1.59028e-015
lhumerus -30.1658 7.12263 80.6835
lradius 37.0206
lwrist -1.05037
lhand -18.2133 23.6262
lfingers 7.12502
lthumb 8.06446 53.4524
rfemur -3.89834 2.40717 25.747
rtibia 2.54444e-014
rfoot -4.25228 -5.3449
rtoes 19.3965
lfemur -72.0368 3.05197 -24.5002
ltibia 104.298
lfoot -16.1623 -15.2274
ltoes -22.22
354
root -0.370588 25.4719 3.28938 -170.849 -3.40569 178.503
lowerback 8.79385 0.692134 -1.54329
upperback 1.19305 0.736551 1.70462
thorax -3.7364 0.352069 2.55327
lowerneck -14.8504 2.56258 -9.6876
upperneck 38.9717 1.60347 2.80277
head 16.3092 -1.75931 2.84054
rclavicle -3.97569e-016 5.56597e-015
rhumerus -28.7405 -2.21474 -78.9807
rradius 42.1095
rwrist 16.0817
rhand -20.7096 1.95618
rfingers 7.12502
rthumb 5.65471 -27.9484
lclavicle -3.97569e-016 5.56597e-015
lhumerus -30.2039 7.1867 80.7019
lradius 37.0287
lwrist -0.928674
lhand -18.2261 23.758
lfingers 7.12502
lthumb 8.0521 53.5847
rfemur -3.72674 2.47275 25.7677
rtibia -5.56597e-015
rfoot -4.34303 -5.30853
rtoes 19.3887
lfemur -72.8435 2.96255 -24.8768
ltibia 103.653
lfoot -16.6346 -15.4404
ltoes -22.3119
355
root -0.378092 25.468 3.24799 -170.955 -3.3153 178.53
lowerback 8.801 0.718285 -1.51768
upperback 1.25368 0.769885 1.72872
thorax -3.67931 0.365298 2.56001
lowerneck -14.941 2.59103 -9.75556
upperneck 39.1154 1.63736 2.83952
head 16.4024 -1.76613 2.87627
rclavicle 9.34288e-015 1.19271e-014
rhumerus -28.4184 -2.32634 -78.9218
rradius 42.0676
rwrist 16.1894
rhand -20.551 2.10798
rfingers 7.12502
rthumb 5.80782 -27.7924
lclavicle 9.34288e-015 1.19271e-014
lhumerus -30.1606 7.52735 80.6858
lradius 36.901
lwrist -0.793312
lhand -18.041 23.9605
lfingers 7.12502
lthumb 8.23078 53.7801
rfemur -3.44916 2.52411 25.7777
rtibia 4.77083e-015
rfoot -4.51178 -5.23228
rtoes 19.5815
lfemur -73.4573 2.91858 -25.2912
ltibia 102.858
lfoot -17.0874 -15.5426
ltoes -23.3908
